<?xml version="1.0" encoding="UTF-8"?><svg id="Layer_1" xmlns="http://www.w3.org/2000/svg" viewBox="0 0 718.98 337.81"><path d="M198.89,231.19L256.52,2.5h-73.8s13.04,5.08,12.18,11.72l-19,75.38h-72.78L125.07,2.5H51.27s13.04,5.08,12.18,11.72L5.82,242.88h73.79s-13-5.07-12.18-11.69l25.92-102.84h72.78l-28.86,114.53h73.79s-13-5.07-12.18-11.69Z" fill="#fff" stroke="#bbd751" stroke-miterlimit="10" stroke-width="5"/><path d="M475.2,49.22C468.69-1.3,425.77,2.64,425.77,2.64h-133.39s13.04,5.08,12.18,11.72l-57.63,228.66h73.79l43.12-.14c30.42-.54,53.78-10.05,71.16-32.32,17.38-22.27,46.72-110.82,40.2-161.34ZM397.76,180.32c-11.75,15.06-27.55,21.49-48.12,21.86l10.85.09h-49.9l38.97-154.61,2-7.93h39.96s29.02-2.66,33.43,31.5c4.41,34.16-15.43,94.03-27.18,109.09Z" fill="#fff" stroke="#bbd751" stroke-miterlimit="10" stroke-width="5"/><path d="M456.83,242.81l.13-.17h-.13s39.89-50.47,39.89-50.47l115.91-147.11-99.9-.13c-6.73-.87-11.88,12.34-11.88,12.34V2.5l145.72.11.09-.11h67.17l-.13.17h.13s-39.9,50.48-39.9,50.48l-115.9,147.1,99.9.13c6.73.87,11.88-12.34,11.88-12.34v55.59l-212.97-.81Z" fill="#fff" stroke="#bbd751" stroke-miterlimit="10" stroke-width="5"/><path d="M29.49,325.36h-6.73v-13.99h-13.12v13.99H2.92v-32.65h6.73v13.23h13.12v-13.23h6.73v32.65Z" fill="#fff"/><path d="M54.2,318.63h-11.8l-2.24,6.73h-7.15l12.16-32.65h6.23l12.22,32.65h-7.15l-2.26-6.73ZM44.22,313.18h8.16l-4.1-12.22-4.06,12.22Z" fill="#fff"/><path d="M78.76,313.41h-5.36v11.95h-6.73v-32.65h12.13c3.86,0,6.83.86,8.93,2.58,2.09,1.72,3.14,4.15,3.14,7.29,0,2.23-.48,4.09-1.45,5.57-.96,1.49-2.43,2.67-4.38,3.55l7.06,13.34v.31h-7.22l-6.12-11.95ZM73.4,307.96h5.43c1.69,0,3-.43,3.92-1.29.93-.86,1.39-2.04,1.39-3.55s-.44-2.75-1.31-3.63c-.87-.88-2.22-1.32-4.03-1.32h-5.4v9.8Z" fill="#fff"/><path d="M95.98,325.36v-32.65h10.05c2.87,0,5.44.65,7.7,1.94s4.03,3.13,5.3,5.52c1.27,2.38,1.91,5.09,1.91,8.13v1.5c0,3.04-.62,5.73-1.87,8.1-1.25,2.36-3.01,4.19-5.28,5.49-2.27,1.3-4.84,1.96-7.69,1.97h-10.11ZM102.71,298.16v21.8h3.25c2.63,0,4.64-.86,6.03-2.58,1.39-1.72,2.1-4.18,2.13-7.38v-1.73c0-3.32-.69-5.83-2.06-7.55s-3.39-2.57-6.03-2.57h-3.32Z" fill="#fff"/><path d="M142.76,316.8c0-1.27-.45-2.25-1.35-2.93s-2.51-1.4-4.84-2.15c-2.33-.75-4.18-1.5-5.54-2.23-3.71-2-5.56-4.7-5.56-8.1,0-1.76.5-3.34,1.49-4.72.99-1.38,2.42-2.46,4.28-3.24s3.95-1.17,6.27-1.17,4.41.42,6.23,1.27c1.82.84,3.24,2.04,4.25,3.58,1.01,1.54,1.51,3.29,1.51,5.25h-6.73c0-1.5-.47-2.66-1.41-3.49s-2.27-1.25-3.97-1.25-2.92.35-3.83,1.04c-.91.7-1.37,1.61-1.37,2.75,0,1.06.53,1.95,1.6,2.67s2.64,1.39,4.72,2.02c3.83,1.15,6.62,2.58,8.36,4.28,1.75,1.7,2.62,3.83,2.62,6.37,0,2.83-1.07,5.04-3.21,6.65-2.14,1.61-5.02,2.41-8.63,2.41-2.51,0-4.8-.46-6.86-1.38-2.06-.92-3.64-2.18-4.72-3.78-1.08-1.6-1.63-3.45-1.63-5.56h6.75c0,3.6,2.15,5.41,6.46,5.41,1.6,0,2.85-.33,3.75-.98s1.35-1.56,1.35-2.72Z" fill="#fff"/><path d="M179.7,314.49c-.25,3.51-1.55,6.28-3.89,8.3s-5.42,3.03-9.25,3.03c-4.19,0-7.48-1.41-9.88-4.23-2.4-2.82-3.6-6.69-3.6-11.61v-2c0-3.14.55-5.91,1.66-8.3,1.11-2.39,2.69-4.23,4.74-5.51s4.44-1.92,7.17-1.92c3.77,0,6.8,1.01,9.1,3.03s3.63,4.85,3.99,8.5h-6.73c-.16-2.11-.75-3.64-1.76-4.59-1.01-.95-2.55-1.42-4.61-1.42-2.24,0-3.92.8-5.03,2.41-1.11,1.61-1.69,4.1-1.72,7.48v2.47c0,3.53.53,6.11,1.6,7.74,1.07,1.63,2.75,2.44,5.06,2.44,2.08,0,3.63-.47,4.65-1.42,1.02-.95,1.61-2.42,1.76-4.41h6.73Z" fill="#fff"/><path d="M202.55,318.63h-11.8l-2.24,6.73h-7.15l12.16-32.65h6.23l12.22,32.65h-7.15l-2.26-6.73ZM192.57,313.18h8.16l-4.1-12.22-4.06,12.22Z" fill="#fff"/><path d="M221.75,313.86v11.5h-6.73v-32.65h12.74c2.45,0,4.61.45,6.47,1.35s3.29,2.17,4.29,3.82c1,1.65,1.5,3.53,1.5,5.64,0,3.2-1.1,5.72-3.29,7.57-2.19,1.85-5.22,2.77-9.09,2.77h-5.9ZM221.75,308.41h6.01c1.78,0,3.14-.42,4.07-1.26.93-.84,1.4-2.03,1.4-3.59s-.47-2.89-1.41-3.88-2.24-1.5-3.9-1.53h-6.17v10.25Z" fill="#fff"/><path d="M251.8,325.36h-6.73v-32.65h6.73v32.65Z" fill="#fff"/><path d="M284.58,325.36h-6.73l-13.1-21.48v21.48h-6.73v-32.65h6.73l13.12,21.53v-21.53h6.71v32.65Z" fill="#fff"/><path d="M316.3,321.24c-1.21,1.45-2.92,2.58-5.14,3.38-2.21.8-4.66,1.2-7.36,1.2-2.83,0-5.3-.62-7.43-1.85s-3.78-3.02-4.93-5.37c-1.16-2.35-1.75-5.11-1.78-8.28v-2.22c0-3.26.55-6.08,1.65-8.47s2.68-4.21,4.75-5.47c2.07-1.26,4.5-1.89,7.28-1.89,3.87,0,6.9.92,9.08,2.77,2.18,1.85,3.48,4.53,3.88,8.06h-6.55c-.3-1.87-.96-3.24-1.98-4.1s-2.43-1.3-4.23-1.3c-2.29,0-4.03.86-5.23,2.58-1.2,1.72-1.8,4.28-1.82,7.67v2.09c0,3.42.65,6.01,1.95,7.76s3.21,2.62,5.72,2.62,4.33-.54,5.4-1.61v-5.63h-6.12v-4.96h12.85v13.03Z" fill="#fff"/><path d="M331.86,316.57c0-1.51.42-2.91,1.27-4.19.84-1.29,2.4-2.71,4.65-4.28-.97-1.3-1.73-2.52-2.29-3.67s-.83-2.34-.83-3.58c0-2.54.8-4.61,2.41-6.2,1.61-1.59,3.77-2.39,6.49-2.39,2.44,0,4.44.73,6,2.17,1.56,1.45,2.34,3.26,2.34,5.43,0,2.6-1.32,4.9-3.95,6.88l-2.51,1.82,5.63,6.55c.88-1.73,1.32-3.65,1.32-5.74h5.52c0,4.25-.98,7.68-2.94,10.32l4.89,5.67h-7.36l-1.68-1.93c-2.41,1.58-5.17,2.38-8.3,2.38s-5.82-.85-7.76-2.54c-1.94-1.7-2.92-3.93-2.92-6.69ZM342.85,320.59c1.55,0,3.03-.43,4.42-1.3l-6.44-7.43-.47.33c-1.33,1.13-2,2.47-2,4,0,1.3.42,2.35,1.24,3.17.83.81,1.91,1.22,3.24,1.22ZM340.47,300.76c0,1.12.66,2.53,1.97,4.24l1.73-1.14c.88-.57,1.49-1.12,1.83-1.66s.5-1.18.5-1.93-.28-1.4-.83-1.95c-.55-.55-1.26-.83-2.13-.83-.93,0-1.67.3-2.23.9-.56.6-.84,1.39-.84,2.38Z" fill="#fff"/><path d="M381.49,319.96h14.29v5.4h-21.01v-32.65h6.73v27.25Z" fill="#fff"/><path d="M418.49,318.63h-11.8l-2.24,6.73h-7.15l12.15-32.65h6.23l12.22,32.65h-7.15l-2.26-6.73ZM408.51,313.18h8.16l-4.1-12.22-4.06,12.22Z" fill="#fff"/><path d="M457.51,325.36h-6.73l-13.1-21.48v21.48h-6.73v-32.65h6.73l13.12,21.53v-21.53h6.71v32.65Z" fill="#fff"/><path d="M463.39,325.36v-32.65h10.05c2.87,0,5.44.65,7.7,1.94,2.27,1.29,4.03,3.13,5.3,5.52,1.27,2.38,1.91,5.09,1.91,8.13v1.5c0,3.04-.62,5.73-1.87,8.1-1.25,2.36-3.01,4.19-5.28,5.49s-4.84,1.96-7.69,1.97h-10.11ZM470.11,298.16v21.8h3.25c2.63,0,4.64-.86,6.03-2.58,1.39-1.72,2.1-4.18,2.13-7.38v-1.73c0-3.32-.69-5.83-2.06-7.55-1.38-1.71-3.39-2.57-6.03-2.57h-3.32Z" fill="#fff"/><path d="M510.17,316.8c0-1.27-.45-2.25-1.35-2.93-.9-.68-2.51-1.4-4.84-2.15-2.33-.75-4.18-1.5-5.54-2.23-3.71-2-5.56-4.7-5.56-8.1,0-1.76.5-3.34,1.49-4.72.99-1.38,2.42-2.46,4.28-3.24s3.95-1.17,6.27-1.17,4.41.42,6.23,1.27c1.82.84,3.24,2.04,4.25,3.58,1.01,1.54,1.51,3.29,1.51,5.25h-6.73c0-1.5-.47-2.66-1.41-3.49-.94-.83-2.26-1.25-3.97-1.25s-2.92.35-3.83,1.04-1.37,1.61-1.37,2.75c0,1.06.53,1.95,1.6,2.67,1.07.72,2.64,1.39,4.72,2.02,3.83,1.15,6.62,2.58,8.37,4.28,1.75,1.7,2.62,3.83,2.62,6.37,0,2.83-1.07,5.04-3.21,6.65-2.14,1.61-5.02,2.41-8.63,2.41-2.51,0-4.8-.46-6.86-1.38-2.06-.92-3.64-2.18-4.72-3.78s-1.62-3.45-1.62-5.56h6.75c0,3.6,2.15,5.41,6.46,5.41,1.6,0,2.85-.33,3.75-.98.9-.65,1.35-1.56,1.35-2.72Z" fill="#fff"/><path d="M547.1,314.49c-.25,3.51-1.55,6.28-3.89,8.3s-5.42,3.03-9.25,3.03c-4.19,0-7.48-1.41-9.88-4.23-2.4-2.82-3.6-6.69-3.6-11.61v-2c0-3.14.55-5.91,1.66-8.3,1.11-2.39,2.69-4.23,4.74-5.51s4.44-1.92,7.17-1.92c3.77,0,6.8,1.01,9.11,3.03,2.3,2.02,3.63,4.85,3.99,8.5h-6.73c-.17-2.11-.75-3.64-1.76-4.59-1.01-.95-2.54-1.42-4.61-1.42-2.24,0-3.92.8-5.03,2.41-1.11,1.61-1.69,4.1-1.72,7.48v2.47c0,3.53.53,6.11,1.6,7.74,1.07,1.63,2.75,2.44,5.06,2.44,2.08,0,3.63-.47,4.65-1.42,1.02-.95,1.61-2.42,1.76-4.41h6.73Z" fill="#fff"/><path d="M569.95,318.63h-11.8l-2.24,6.73h-7.15l12.15-32.65h6.23l12.22,32.65h-7.15l-2.26-6.73ZM559.98,313.18h8.16l-4.1-12.22-4.06,12.22Z" fill="#fff"/><path d="M589.15,313.86v11.5h-6.73v-32.65h12.74c2.45,0,4.61.45,6.47,1.35s3.29,2.17,4.29,3.82c1,1.65,1.5,3.53,1.5,5.64,0,3.2-1.09,5.72-3.29,7.57-2.19,1.85-5.22,2.77-9.09,2.77h-5.9ZM589.15,308.41h6.01c1.78,0,3.14-.42,4.07-1.26.93-.84,1.4-2.03,1.4-3.59s-.47-2.89-1.41-3.88c-.94-.99-2.24-1.5-3.9-1.53h-6.17v10.25Z" fill="#fff"/><path d="M619.2,325.36h-6.73v-32.65h6.73v32.65Z" fill="#fff"/><path d="M651.99,325.36h-6.73l-13.1-21.48v21.48h-6.73v-32.65h6.73l13.12,21.53v-21.53h6.71v32.65Z" fill="#fff"/><path d="M683.7,321.24c-1.21,1.45-2.92,2.58-5.14,3.38s-4.66,1.2-7.36,1.2c-2.83,0-5.3-.62-7.43-1.85-2.13-1.23-3.77-3.02-4.93-5.37-1.16-2.35-1.75-5.11-1.78-8.28v-2.22c0-3.26.55-6.08,1.65-8.47,1.1-2.38,2.68-4.21,4.75-5.47,2.07-1.26,4.5-1.89,7.28-1.89,3.87,0,6.9.92,9.08,2.77s3.48,4.53,3.88,8.06h-6.55c-.3-1.87-.96-3.24-1.99-4.1s-2.43-1.3-4.23-1.3c-2.29,0-4.03.86-5.22,2.58-1.2,1.72-1.8,4.28-1.82,7.67v2.09c0,3.42.65,6.01,1.95,7.76,1.3,1.75,3.21,2.62,5.72,2.62s4.33-.54,5.41-1.61v-5.63h-6.12v-4.96h12.85v13.03Z" fill="#fff"/></svg>