<?xml version="1.0" encoding="UTF-8"?><svg id="Layer_1" xmlns="http://www.w3.org/2000/svg" xmlns:xlink="http://www.w3.org/1999/xlink" viewBox="0 0 718.98 337.81"><defs><linearGradient id="linear-gradient" x1="118.43" y1="104.37" x2="311.82" y2="382.5" gradientUnits="userSpaceOnUse"><stop offset="0" stop-color="#1a4b24"/><stop offset="1" stop-color="#16341b"/></linearGradient><linearGradient id="linear-gradient-2" x1="265.6" y1="2.04" x2="458.99" y2="280.17" xlink:href="#linear-gradient"/><linearGradient id="linear-gradient-3" x1="424.59" y1="-108.51" x2="617.98" y2="169.62" xlink:href="#linear-gradient"/></defs><path d="M198.89,231.19L256.52,2.5h-73.8s13.04,5.08,12.18,11.72l-19,75.38h-72.78L125.07,2.5H51.27s13.04,5.08,12.18,11.72L5.82,242.88h73.79s-13-5.07-12.18-11.69l25.92-102.84h72.78l-28.86,114.53h73.79s-13-5.07-12.18-11.69Z" fill="url(#linear-gradient)" stroke="#bcd751" stroke-miterlimit="10" stroke-width="5"/><path d="M475.2,49.22C468.69-1.3,425.77,2.64,425.77,2.64h-133.39s13.04,5.08,12.18,11.72l-57.63,228.66h73.79l43.12-.14c30.42-.54,53.78-10.05,71.16-32.32,17.38-22.27,46.72-110.82,40.2-161.34ZM397.76,180.32c-11.75,15.06-27.55,21.49-48.12,21.86l10.85.09h-49.9l38.97-154.61,2-7.93h39.96s29.02-2.66,33.43,31.5c4.41,34.16-15.43,94.03-27.18,109.09Z" fill="url(#linear-gradient-2)" stroke="#bcd751" stroke-miterlimit="10" stroke-width="5"/><path d="M456.83,242.81l.13-.17h-.13s39.89-50.47,39.89-50.47l115.91-147.11-99.9-.13c-6.73-.87-11.88,12.34-11.88,12.34V2.5l145.72.11.09-.11h67.17l-.13.17h.13s-39.9,50.48-39.9,50.48l-115.9,147.1,99.9.13c6.73.87,11.88-12.34,11.88-12.34v55.59l-212.97-.81Z" fill="url(#linear-gradient-3)" stroke="#bcd751" stroke-miterlimit="10" stroke-width="5"/><path d="M28.88,325.36h-4.33v-15.09H8.1v15.09H3.79v-32.65h4.31v14.04h16.46v-14.04h4.33v32.65Z" fill="#1b4721"/><path d="M54.97,316.82h-13.68l-3.07,8.54h-4.44l12.47-32.65h3.77l12.49,32.65h-4.42l-3.12-8.54ZM42.59,313.3h11.1l-5.56-15.27-5.54,15.27Z" fill="#1b4721"/><path d="M78.87,312.15h-7.67v13.21h-4.33v-32.65h10.81c3.68,0,6.51.84,8.49,2.51,1.98,1.67,2.97,4.11,2.97,7.31,0,2.03-.55,3.81-1.65,5.32-1.1,1.51-2.63,2.64-4.59,3.39l7.67,13.86v.27h-4.62l-7.09-13.21ZM71.2,308.63h6.62c2.14,0,3.84-.55,5.1-1.66,1.26-1.11,1.9-2.59,1.9-4.45,0-2.02-.6-3.57-1.81-4.65-1.2-1.08-2.94-1.62-5.21-1.64h-6.59v12.4Z" fill="#1b4721"/><path d="M95.18,325.36v-32.65h9.22c2.84,0,5.35.63,7.54,1.88,2.18,1.26,3.87,3.04,5.06,5.36s1.79,4.98,1.81,7.98v2.09c0,3.08-.59,5.78-1.78,8.1s-2.89,4.1-5.09,5.34-4.77,1.88-7.7,1.91h-9.04ZM99.48,296.23v25.61h4.53c3.32,0,5.9-1.03,7.75-3.1,1.85-2.06,2.77-5.01,2.77-8.82v-1.91c0-3.71-.87-6.59-2.61-8.65s-4.21-3.1-7.41-3.13h-5.02Z" fill="#1b4721"/><path d="M134.91,310.81c-3.69-1.06-6.38-2.37-8.06-3.91s-2.52-3.46-2.52-5.73c0-2.57,1.03-4.7,3.08-6.38,2.06-1.68,4.73-2.52,8.02-2.52,2.24,0,4.24.43,6,1.3s3.12,2.06,4.08,3.59c.96,1.53,1.45,3.19,1.45,5h-4.33c0-1.98-.63-3.54-1.88-4.67s-3.03-1.7-5.31-1.7c-2.12,0-3.78.47-4.97,1.4-1.19.94-1.78,2.24-1.78,3.9,0,1.33.56,2.46,1.69,3.38,1.13.92,3.05,1.76,5.76,2.53,2.71.76,4.84,1.61,6.37,2.53,1.53.92,2.67,1.99,3.41,3.22.74,1.23,1.11,2.67,1.11,4.33,0,2.65-1.03,4.77-3.09,6.36-2.06,1.59-4.82,2.39-8.27,2.39-2.24,0-4.34-.43-6.28-1.29-1.94-.86-3.44-2.04-4.5-3.53-1.05-1.5-1.58-3.19-1.58-5.09h4.33c0,1.97.73,3.53,2.19,4.68,1.46,1.14,3.41,1.72,5.84,1.72,2.27,0,4.01-.46,5.23-1.39,1.21-.93,1.82-2.19,1.82-3.79s-.56-2.84-1.68-3.71c-1.12-.88-3.15-1.74-6.1-2.59Z" fill="#1b4721"/><path d="M176.56,315c-.4,3.45-1.68,6.12-3.82,7.99-2.15,1.88-5,2.81-8.56,2.81-3.86,0-6.95-1.38-9.27-4.15s-3.49-6.47-3.49-11.1v-3.14c0-3.04.54-5.7,1.63-8.01,1.08-2.3,2.62-4.07,4.61-5.3,1.99-1.23,4.29-1.85,6.91-1.85,3.47,0,6.25.97,8.34,2.9,2.09,1.94,3.31,4.62,3.66,8.04h-4.33c-.37-2.61-1.19-4.5-2.43-5.67-1.25-1.17-2.99-1.75-5.24-1.75-2.75,0-4.91,1.02-6.47,3.05-1.56,2.04-2.34,4.93-2.34,8.69v3.16c0,3.55.74,6.37,2.22,8.46,1.48,2.09,3.55,3.14,6.21,3.14,2.39,0,4.23-.54,5.51-1.63s2.13-2.97,2.55-5.66h4.33Z" fill="#1b4721"/><path d="M200.47,316.82h-13.68l-3.07,8.54h-4.44l12.47-32.65h3.77l12.49,32.65h-4.42l-3.12-8.54ZM188.09,313.3h11.1l-5.56-15.27-5.54,15.27Z" fill="#1b4721"/><path d="M216.7,312.58v12.78h-4.31v-32.65h12.04c3.57,0,6.37.91,8.4,2.74,2.03,1.82,3.04,4.24,3.04,7.24,0,3.17-.99,5.61-2.97,7.32s-4.82,2.57-8.51,2.57h-7.69ZM216.7,309.06h7.74c2.3,0,4.07-.54,5.29-1.63,1.23-1.08,1.84-2.65,1.84-4.71s-.61-3.5-1.84-4.67-2.91-1.77-5.05-1.82h-7.98v12.83Z" fill="#1b4721"/><path d="M245.99,325.36h-4.31v-32.65h4.31v32.65Z" fill="#1b4721"/><path d="M278.96,325.36h-4.33l-16.44-25.16v25.16h-4.33v-32.65h4.33l16.48,25.27v-25.27h4.28v32.65Z" fill="#1b4721"/><path d="M310.71,321.08c-1.11,1.58-2.65,2.77-4.63,3.55-1.98.78-4.29,1.18-6.92,1.18s-5.02-.62-7.09-1.87c-2.06-1.25-3.66-3.02-4.79-5.33-1.13-2.3-1.71-4.97-1.74-8.01v-2.85c0-4.92,1.15-8.73,3.44-11.44,2.29-2.71,5.52-4.06,9.68-4.06,3.41,0,6.15.87,8.23,2.61,2.08,1.74,3.35,4.21,3.81,7.41h-4.31c-.81-4.34-3.38-6.5-7.71-6.5-2.89,0-5.07,1.01-6.56,3.04s-2.24,4.96-2.25,8.81v2.67c0,3.67.84,6.58,2.51,8.74s3.94,3.24,6.8,3.24c1.61,0,3.03-.18,4.24-.54s2.21-.96,3-1.81v-7.32h-7.56v-3.52h11.84v11.98Z" fill="#1b4721"/><path d="M327.73,316.59c0-1.57.44-3.01,1.31-4.33.87-1.32,2.54-2.85,5.01-4.6-1.45-1.76-2.42-3.18-2.92-4.26-.49-1.08-.74-2.15-.74-3.21,0-2.48.73-4.42,2.2-5.83s3.45-2.11,5.97-2.11c2.24,0,4.1.65,5.56,1.96,1.47,1.31,2.2,2.96,2.2,4.95,0,1.32-.33,2.53-1,3.64-.67,1.11-1.83,2.28-3.49,3.51l-2.4,1.77,7.27,8.68c1.02-1.94,1.52-4.1,1.52-6.48h3.75c0,3.81-.92,6.97-2.76,9.49l4.66,5.58h-4.98l-2.18-2.58c-1.11.99-2.4,1.74-3.89,2.25s-3,.77-4.54.77c-3.18,0-5.74-.84-7.67-2.53-1.93-1.69-2.89-3.92-2.89-6.68ZM338.29,322.43c2.2,0,4.21-.84,6.03-2.51l-7.96-9.53-.74.54c-2.5,1.84-3.75,3.73-3.75,5.67,0,1.76.57,3.18,1.72,4.24s2.71,1.59,4.7,1.59ZM334.55,300.07c0,1.44.88,3.23,2.65,5.38l2.65-1.86c1.02-.72,1.71-1.4,2.09-2.05s.56-1.44.56-2.37c0-1-.37-1.83-1.12-2.5-.75-.67-1.69-1-2.83-1-1.23,0-2.2.42-2.92,1.25-.72.83-1.08,1.88-1.08,3.15Z" fill="#1b4721"/><path d="M373.5,321.84h15.47v3.52h-19.8v-32.65h4.33v29.13Z" fill="#1b4721"/><path d="M412.35,316.82h-13.68l-3.07,8.54h-4.44l12.47-32.65h3.77l12.49,32.65h-4.42l-3.12-8.54ZM399.97,313.3h11.1l-5.56-15.27-5.54,15.27Z" fill="#1b4721"/><path d="M449.37,325.36h-4.33l-16.44-25.16v25.16h-4.33v-32.65h4.33l16.48,25.27v-25.27h4.28v32.65Z" fill="#1b4721"/><path d="M457.02,325.36v-32.65h9.22c2.84,0,5.35.63,7.54,1.88s3.87,3.04,5.06,5.36c1.19,2.32,1.79,4.98,1.8,7.98v2.09c0,3.08-.59,5.78-1.78,8.1-1.19,2.32-2.89,4.1-5.09,5.34-2.21,1.24-4.77,1.88-7.7,1.91h-9.04ZM461.32,296.23v25.61h4.53c3.32,0,5.9-1.03,7.75-3.1,1.85-2.06,2.77-5.01,2.77-8.82v-1.91c0-3.71-.87-6.59-2.61-8.65-1.74-2.06-4.21-3.1-7.41-3.13h-5.02Z" fill="#1b4721"/><path d="M496.76,310.81c-3.69-1.06-6.38-2.37-8.06-3.91s-2.52-3.46-2.52-5.73c0-2.57,1.03-4.7,3.08-6.38,2.06-1.68,4.73-2.52,8.02-2.52,2.24,0,4.24.43,6,1.3,1.76.87,3.12,2.06,4.08,3.59.96,1.53,1.45,3.19,1.45,5h-4.33c0-1.98-.63-3.54-1.88-4.67s-3.03-1.7-5.31-1.7c-2.12,0-3.78.47-4.97,1.4-1.19.94-1.78,2.24-1.78,3.9,0,1.33.56,2.46,1.69,3.38s3.05,1.76,5.76,2.53,4.84,1.61,6.37,2.53c1.53.92,2.67,1.99,3.41,3.22.74,1.23,1.11,2.67,1.11,4.33,0,2.65-1.03,4.77-3.09,6.36-2.06,1.59-4.82,2.39-8.28,2.39-2.24,0-4.34-.43-6.28-1.29s-3.44-2.04-4.5-3.53-1.58-3.19-1.58-5.09h4.33c0,1.97.73,3.53,2.19,4.68,1.46,1.14,3.41,1.72,5.84,1.72,2.27,0,4.01-.46,5.23-1.39,1.21-.93,1.82-2.19,1.82-3.79s-.56-2.84-1.68-3.71c-1.12-.88-3.16-1.74-6.1-2.59Z" fill="#1b4721"/><path d="M538.4,315c-.4,3.45-1.68,6.12-3.82,7.99-2.15,1.88-5,2.81-8.56,2.81-3.86,0-6.95-1.38-9.27-4.15-2.33-2.77-3.49-6.47-3.49-11.1v-3.14c0-3.04.54-5.7,1.63-8.01,1.08-2.3,2.62-4.07,4.61-5.3,1.99-1.23,4.29-1.85,6.91-1.85,3.47,0,6.25.97,8.34,2.9,2.09,1.94,3.31,4.62,3.66,8.04h-4.33c-.37-2.61-1.18-4.5-2.43-5.67-1.25-1.17-2.99-1.75-5.24-1.75-2.75,0-4.91,1.02-6.47,3.05-1.56,2.04-2.34,4.93-2.34,8.69v3.16c0,3.55.74,6.37,2.22,8.46,1.48,2.09,3.55,3.14,6.21,3.14,2.39,0,4.23-.54,5.51-1.63s2.13-2.97,2.54-5.66h4.33Z" fill="#1b4721"/><path d="M562.31,316.82h-13.68l-3.07,8.54h-4.44l12.47-32.65h3.77l12.49,32.65h-4.42l-3.12-8.54ZM549.93,313.3h11.1l-5.56-15.27-5.54,15.27Z" fill="#1b4721"/><path d="M578.54,312.58v12.78h-4.31v-32.65h12.04c3.57,0,6.37.91,8.4,2.74,2.03,1.82,3.04,4.24,3.04,7.24,0,3.17-.99,5.61-2.97,7.32-1.98,1.71-4.82,2.57-8.51,2.57h-7.69ZM578.54,309.06h7.74c2.3,0,4.07-.54,5.29-1.63,1.23-1.08,1.84-2.65,1.84-4.71s-.61-3.5-1.84-4.67-2.91-1.77-5.05-1.82h-7.98v12.83Z" fill="#1b4721"/><path d="M607.83,325.36h-4.31v-32.65h4.31v32.65Z" fill="#1b4721"/><path d="M640.8,325.36h-4.33l-16.44-25.16v25.16h-4.33v-32.65h4.33l16.48,25.27v-25.27h4.28v32.65Z" fill="#1b4721"/><path d="M672.55,321.08c-1.11,1.58-2.65,2.77-4.63,3.55-1.98.78-4.29,1.18-6.92,1.18s-5.02-.62-7.09-1.87-3.66-3.02-4.79-5.33-1.71-4.97-1.74-8.01v-2.85c0-4.92,1.15-8.73,3.44-11.44,2.29-2.71,5.52-4.06,9.68-4.06,3.41,0,6.15.87,8.23,2.61,2.08,1.74,3.35,4.21,3.81,7.41h-4.31c-.81-4.34-3.38-6.5-7.71-6.5-2.89,0-5.07,1.01-6.56,3.04-1.49,2.03-2.24,4.96-2.25,8.81v2.67c0,3.67.84,6.58,2.51,8.74,1.67,2.16,3.94,3.24,6.79,3.24,1.61,0,3.03-.18,4.24-.54s2.21-.96,3-1.81v-7.32h-7.56v-3.52h11.84v11.98Z" fill="#1b4721"/></svg>