<?xml version="1.0" encoding="UTF-8"?>
<svg id="Layer_1" xmlns="http://www.w3.org/2000/svg" viewBox="0 0 96.95 98.72" fill="url(#loamGradient)">
  <defs>
    <linearGradient id="loamGradient" x1="0%" y1="0%" x2="100%" y2="100%">
      <stop offset="0%" stop-color="#6ab967" />
      <stop offset="100%" stop-color="#287b40" />
    </linearGradient>
  </defs>
  <path d="M95.07,51.1c-2.51,4.33-7.49,8.27-12.52,8.33l-12.2.14c-4.3.05-8.47.17-12.78,0-4.75-.18-9.37-.18-14.12,0-4.18.16-8.21.04-12.4,0l-15.93-.16c-1.62-.02-5.23-1.75-6.62-2.65-2.13-1.38-3.9-3.2-5.44-5.28-1.06-1.44-2.02-3.87-2.64-5.66-.59-1.7-.33-3.61-.42-5.41-.11-2.14.24-3.99,1.06-5.89.5-1.17.91-2.27,1.65-3.38,2.08-3.16,5.13-5.73,8.7-7.07l3.67-1.37c.93-.35.76-1.69.84-2.48.16-1.48.59-2.79.96-4.19,1.82-6.98,7.52-12.72,14.44-14.98,4.58-1.49,9.6-1.31,14.24.05.9.26,1.87.78,2.71,1.16,3.01,1.34,5.34,3.46,7.5,5.94,1.29,1.48,2.65,4.45,4.08,3.84,1.81-.77,3.61-1.26,5.64-1.33,2.15-.07,4.34.09,6.35.87,6.55,2.54,9.77,7.78,10.66,14.62.52,1.04,2.22,1.43,3.32,1.74,6.14,1.72,11.39,8.4,11.11,14.72-.08,1.78.13,3.65-.52,5.32-.41,1.05-.81,2.19-1.35,3.13Z"/>
  <path d="M51.85,97.96c-1.98.98-4.41.99-6.43.15-1.36-.57-2.72-1.94-3.29-3.3-1.19-2.82-.44-5.9,1.02-8.38l1.24-2.13,1-1.64,1.69-2.65c.32-.51.79-.91,1.35-1.03.72-.15,1.05.48,1.46,1.08.52.78,1.01,1.53,1.49,2.34l1.42,2.38,1.07,1.86c.96,1.67,1.44,3.35,1.37,5.36-.04,1.2-.04,2.5-.76,3.52-.66.93-1.48,1.88-2.63,2.45Z"/>
  <path d="M71.86,84.83c-3.05,1.59-8.13.51-9.55-3.6s.83-7.6,3-11.18c.98-1.62,1.8-3.18,3.39-4.41,1.11.65,1.68,1.65,2.35,2.67l.98,1.49c1.41,2.14,2.71,4.34,3.44,6.82.97,3.3-.49,6.57-3.62,8.21Z"/>
  <path d="M33.89,82.46c-2.33,3.62-8,3.92-10.89.93-2.32-2.39-2.4-5.81-.97-8.63l1.22-2.41c.42-.83.9-1.62,1.41-2.4l1.31-2.03c.6-.93,1-1.66,2.15-2.23.95.8,1.59,1.68,2.25,2.71l1.32,2.04c.45.69.82,1.43,1.23,2.16,1.17,2.12,2.82,5.43,1.83,7.9-.22.54-.51,1.39-.87,1.95Z"/>
</svg>
