<?xml version="1.0" encoding="UTF-8"?><svg id="Layer_1" xmlns="http://www.w3.org/2000/svg" viewBox="0 0 379.68 114.06"><path d="M58.98,96.12l-31-.04c-6.5,0-11.66-5.52-11.66-11.94V9.21c0-5.12-3.41-9.02-8.36-8.83C4.25.51,0,3.64,0,8.36v75.94c0,14.49,11.4,27.62,26.42,27.66l52.36.27c-7.59-4.26-13.83-9.57-19.81-16.12Z" fill="#fff"/><path d="M166.12,57.03c0-31.5-25.53-57.03-57.03-57.03s-57.03,25.53-57.03,57.03,25.53,57.03,57.03,57.03,57.03-25.53,57.03-57.03ZM109.09,98.22c-22.75,0-41.19-18.44-41.19-41.19S86.34,15.84,109.09,15.84s41.19,18.44,41.19,41.19-18.44,41.19-41.19,41.19Z" fill="#fff"/><path d="M290.02,98.19L242.52,7.78s0-.01-.01-.02h0c-2.38-4.46-5.69-6.82-9.07-6.93h-.57c-3.37.12-6.68,2.47-9.07,6.93l-37.02,69.21c-6.62,12.37-14.91,19.25-25.68,19.12l-1.4.04c-5.98,6.54-12.22,11.86-19.81,16.12l22.77-.27c22.24.29,28.15-6.4,38.92-24.01l28.72-56.18c.51-.95,1.67-1.45,2.86-1.52,0,0,0,0,0,0v.02c1.19.07,2.35.57,2.86,1.52l31.97,63.11-45.73-.04h-3.28c-5.55,0-9.77,3.7-9.57,9.06.15,4.01,3.53,8.63,8.65,8.63l60.46.06h0s2.61-.01,2.61-.01c2.31.36,4.75-.15,6.79-1.63,4.1-2.96,5.02-8.68,2.09-12.79h0Z" fill="#fff"/><path d="M378.75,100.68l-38.07-72.95-.05.02-11.22-21.51c-2.57-4.92-7.8-6.95-12.46-4.29-3.49,1.99-6.01,7.12-3.64,11.66l38.07,72.95.05-.02,11.22,21.51c2.57,4.92,7.8,6.95,12.46,4.29,3.49-1.99,6.01-7.12,3.64-11.66Z" fill="#fff"/><path d="M297.02,27.73l-.05.02-11.22-21.51c-2.57-4.92-7.8-6.95-12.46-4.29-3.49,1.99-6.01,7.12-3.64,11.66l38.07,72.95.05-.02,11.22,21.51c2.57,4.92,7.8,6.95,12.46,4.29,3.49-1.99,6.01-7.12,3.64-11.66l-38.07-72.95Z" fill="#fff"/></svg>