<?xml version="1.0" encoding="UTF-8"?><svg id="Layer_1" xmlns="http://www.w3.org/2000/svg" viewBox="0 0 99.73 99.73"><path d="M56.91,34.53c.12.05.17-.25.16-.35l-.52-4.32c-.05-.44-.51-.92-.94-1.04l-2.62-.72-1.76-.43c-1.13-.28-2.22-.27-3.36.03l-4.15,1.1c-.75.29-.99.87-1.07,1.6l-.45,4.19c5.48-2.06,9.35-2.05,14.71-.04Z"/><path d="M49.87,0C22.33,0,0,22.33,0,49.87s22.33,49.87,49.87,49.87,49.87-22.33,49.87-49.87S77.41,0,49.87,0ZM61.26,33.61c.17-.53.24-1.02.3-1.57l.61-5.59c.07-.62.77-1.14,1.34-1.3l4.46-1.27c.35-.1.45-.23.67-.5.76-.95,2.28-.87,3.08,0,.08.34.3.42.6.51l4.51,1.29c.97.28,1.46,1.17,1.43,2.11l.47,4.36.16,1.3c.32.98.77,2.18.66,3.19-.04.32-.47.52-.72.36-1.03-.64-2.03-1.21-3.14-1.68-3.43-1.45-6.59-1.62-10.13-.36-1.46.52-2.76,1.23-4.09,2.05-.14.09-.44,0-.55-.1-.44-.42.13-2.14.33-2.78ZM78.17,38.22c-.13,4.41-3.73,7.83-8.05,7.81-4.31-.03-7.85-3.46-7.95-7.82,5.57-3.63,10.38-3.7,16,.02ZM39.88,36l.68-6.61c.1-1,.53-1.87,1.59-2.18l5.51-1.59c.37-.82,1.13-1.16,1.99-1.15.85.01,1.62.36,1.95,1.17l5.54,1.58c1.11.32,1.53,1.31,1.57,2.31.02.53.09,1.03.15,1.54l.29,2.74.2,1.75c.1.86,1.48,3.94.44,4.33-.15.06-.39.04-.55-.05-.96-.59-1.87-1.14-2.9-1.6-1.71-.78-3.48-1.36-5.37-1.51-2.66-.2-4.65.14-7.1,1.1-1.35.53-2.56,1.2-3.78,1.96-.24.15-.5.17-.71.05-.23-.15-.38-.45-.32-.75.19-1.07.45-2.06.81-3.09ZM58.59,41.55c0,4.87-3.84,8.76-8.59,8.96-4.76.2-8.92-3.41-9.29-8.24-.02-.24.01-.5.03-.76,6.23-4,11.57-4.03,17.85.04ZM20.33,33.08l.64-5.56c.15-1.35.22-2.05,1.83-2.49l2.49-.68,2.03-.62c.49-.96,1.62-1.27,2.6-.89.43.16.72.45.92.89l4.01,1.16c.58.17,1.17.28,1.63.63.56.43.64.95.71,1.6l.61,5.72c.21.71,1.18,3.27.41,3.65-.11.05-.38.04-.51-.04-6.01-3.77-11.11-3.84-17.14-.04-.17.11-.39.16-.56.08-.84-.36.25-2.77.33-3.41ZM37.09,38.22c-.12,4.09-3.21,7.35-7.18,7.76-3.99.41-7.72-2.22-8.62-6.21-.13-.59-.17-1.04-.14-1.61,2.68-1.69,5.42-2.88,8.64-2.69,2.57.12,5.19,1.33,7.31,2.74ZM29.98,63.61l-.78,8.97-.12,1.31-11.16-.03c-.91,0-1.8-.41-2.42-1.02-.59-.59-.95-1.46-.95-2.34v-13.65c.02-1.68.39-3.27.98-4.78.65-1.67,1.79-2.95,3.34-3.84,1.63-.88,3.44-1.28,5.27-1.33l4.95,4.11,4.95-4.12c1.6.07,3.17.39,4.65,1.04,1,.52,1.89,1.06,2.61,2.01l-1.5.25c-.65.11-1.27.29-1.9.5-2.56.85-4.64,2.61-5.96,4.97-1.01,1.81-1.62,4.02-1.82,6.16l-.17,1.81ZM31.6,73.91l.08-.89.06-1.13.28-3.15.19-1.98.48-4.79c.19-1.91.73-3.72,1.73-5.34,1.76-2.85,4.73-4.23,8.01-4.46.4-.05.82-.08,1.22-.04l5.97,4.61,6.03-4.54c1.79-.06,3.51.26,5.15.94,3.71,1.54,5.53,5.17,5.89,9l.16,1.71.15,1.79.17,2.01.46,6.07-36.04.19ZM83.58,73c-.63.53-1.43.86-2.28.86l-11.13.03-.16-1.88-.14-1.64-.16-1.78-.11-1.32-.1-1.16-.15-1.71-.18-2.06c-1.05-12.33-10.7-12.06-11.18-12.36-.05-.03.02-.18.07-.23,1.87-2.02,4.48-2.7,7.13-2.88l4.57,3.79c.17.14.3.26.51.25l4.71-3.91c.14-.12.39-.13.56-.11,1.38.11,2.66.37,3.94.89,1.94.8,3.46,2.28,4.24,4.25.57,1.42.95,2.91.95,4.49v14.21c.01.89-.46,1.74-1.07,2.27Z"/><path d="M76.71,31.72c.06-.33.02-.69-.02-1.04l-.38-3.15c-.05-.42-.53-.85-.94-.96l-3.69-.97c-1.05-.28-2.08-.26-3.14.02l-3.61.96c-.8.21-.95.93-1.03,1.64l-.16,1.51-.2,2c4.89-1.81,8.23-1.84,13.16,0Z"/><path d="M35.73,31.75c-.15-1.47-.29-2.85-.51-4.26-.1-.61-.8-.93-1.33-1.03l-3.48-.89c-.97-.25-1.96-.2-2.94.06l-3.55.94c-.7.19-.98.74-1.05,1.43l-.39,3.73c5.01-1.81,8.19-1.83,13.25.02Z"/></svg>