<?xml version="1.0" encoding="UTF-8"?>
<svg id="Layer_1" xmlns="http://www.w3.org/2000/svg" viewBox="0 0 99.41 99.41" fill="url(#loamGradient)">
  <defs>
    <linearGradient id="loamGradient" x1="0%" y1="0%" x2="100%" y2="100%">
      <stop offset="0%" stop-color="#84b95a" />
      <stop offset="100%" stop-color="#1f4d33" />
    </linearGradient>
  </defs>
  <path d="M49.7,0C22.25,0,0,22.25,0,49.7s22.25,49.7,49.7,49.7,49.7-22.25,49.7-49.7S77.15,0,49.7,0ZM41.3,70.03c-.13.34-.32.87-.54,1.22-1.45,2.26-4.99,2.44-6.79.58-1.45-1.49-1.5-3.62-.6-5.38l.76-1.5c.26-.52.56-1.01.88-1.5l.82-1.26c.38-.58.63-1.04,1.34-1.39.59.5.99,1.05,1.41,1.69l.82,1.27c.28.43.51.89.77,1.35.73,1.32,1.76,3.39,1.14,4.93ZM53.59,79.38c-.41.58-.93,1.17-1.64,1.53-1.23.61-2.75.62-4.01.1-.85-.35-1.7-1.21-2.05-2.06-.74-1.76-.27-3.68.63-5.23l.78-1.33.62-1.02,1.05-1.65c.2-.32.49-.57.84-.64.45-.1.66.3.91.67.33.49.63.95.93,1.46l.89,1.49.67,1.16c.6,1.04.9,2.09.86,3.34-.02.75-.03,1.56-.48,2.19ZM64.43,72.72c-1.9.99-5.07.32-5.95-2.25-.87-2.52.52-4.74,1.87-6.97.61-1.01,1.12-1.98,2.11-2.75.69.4,1.05,1.03,1.47,1.67l.61.93c.88,1.34,1.69,2.71,2.14,4.25.6,2.06-.31,4.1-2.26,5.12ZM79.75,49.74c-.25.65-.5,1.36-.84,1.95-1.57,2.7-4.67,5.16-7.81,5.19l-7.61.09c-2.68.03-5.28.1-7.97,0-2.96-.11-5.84-.11-8.8,0-2.61.1-5.12.02-7.73,0l-9.93-.1c-1.01-.01-3.26-1.09-4.13-1.65-1.33-.86-2.43-1.99-3.39-3.29-.66-.9-1.26-2.41-1.65-3.53-.37-1.06-.2-2.25-.26-3.37-.07-1.33.15-2.49.66-3.67.31-.73.57-1.42,1.03-2.11,1.3-1.97,3.2-3.58,5.43-4.41l2.29-.85c.58-.22.47-1.06.52-1.55.1-.92.37-1.74.6-2.61,1.14-4.36,4.69-7.93,9-9.34,2.86-.93,5.99-.82,8.88.03.56.16,1.16.49,1.69.72,1.87.84,3.33,2.16,4.68,3.71.8.92,1.65,2.77,2.54,2.39,1.13-.48,2.25-.79,3.52-.83,1.34-.04,2.71.05,3.96.54,4.09,1.59,6.1,4.85,6.65,9.12.32.65,1.38.89,2.07,1.08,3.83,1.07,7.1,5.24,6.93,9.18-.05,1.11.08,2.27-.32,3.32Z"/>
</svg>
