<?xml version="1.0" encoding="UTF-8"?>
<svg id="Layer_1" xmlns="http://www.w3.org/2000/svg" viewBox="0 0 99.66 99.66" fill="url(#loamGradient)">
  <defs>
    <linearGradient id="loamGradient" x1="0%" y1="0%" x2="100%" y2="100%">
      <stop offset="0%" stop-color="#6ab967" />
      <stop offset="100%" stop-color="#287b40" />
    </linearGradient>
  </defs>
  <path d="M49.83,0C22.31,0,0,22.31,0,49.83s22.31,49.83,49.83,49.83,49.83-22.31,49.83-49.83S77.35,0,49.83,0ZM32.67,74.16l-8.4-.02c-.82,0-1.25-.88-1.25-1.64v-24.92c0-.54.83-1.13,1.33-1.13l7.8-.03c.55,0,1.16.46,1.4.98v25.55c0,.53-.36.95-.88,1.19ZM75.39,60.21c1.37,2.03,1.09,4.69-.8,6.31-.49.42-1.08,1-1.51,1.44-.32,2.17-.47,5.33-2.78,6.27-1.48.61-3.01.88-4.63.96-5.3.27-11.64.36-16.95-.16l-11.89-1.17c-1-.1-1.71-.74-1.71-1.9l-.03-24.11c0-1.91,2.36-.55,3.89-3.76,2.67-5.61,6.21-9.14,11.28-12.75,3.17-2.26,4.11-5.2,4.17-9.08.03-2.21,1.28-3.75,3.58-3.86,1.12-.05,2.28.28,2.94,1.33,2.18,3.49,2.12,7.6.35,11.29-1.16,2.43-2.19,4.71-3.23,7.24-.15.36-.01,1.22.23,1.48.25.25.91.58,1.31.57l8.3-.09c2.58-.03,5.32.28,7.54,1.69,1.6,1.02,2.15,3.5,1.76,5.28-.28,1.29-.92,2.42-1.41,3.61.76,1.37,1.73,2.79,1.86,4.39.17,1.9-2.12,3.42-2.58,4.1-.12.18.15.69.29.9Z"/>
</svg>
