<?xml version="1.0" encoding="UTF-8"?><svg id="Layer_1" xmlns="http://www.w3.org/2000/svg" viewBox="0 0 99.68 99.68"><path d="M56.31,57.6c-1.21-.8-2.46-1.32-3.97-1.76v10.27c1.98-.27,3.84-1.01,5.01-2.68,1.41-2.01.9-4.55-1.03-5.83Z"/><path d="M43.93,41.36c1.1,1.21,2.48,1.79,4.23,2.33l.02-9.71c-1.38.17-2.68.64-3.75,1.57-1.67,1.47-2.01,4.15-.5,5.81Z"/><path d="M49.84,0C22.31,0,0,22.31,0,49.84s22.31,49.84,49.84,49.84,49.84-22.31,49.84-49.84S77.37,0,49.84,0ZM70.85,62.01c-.53,9.97-9.49,14.3-18.52,14.59v5.88s-4.14,0-4.14,0l-.03-5.86c-11.1-.72-19.33-5.75-19.49-17.89h12.03c.18,4.56,3.38,6.94,7.47,7.4v-11.36c-5.64-1.32-10.96-2.46-15.07-6.65-2.24-2.29-3.07-5.35-3.1-8.5-.09-10.17,8.96-15.55,18.16-16.15l.03-5.82,4.12-.02.05,5.85c9.49.51,17.82,6.17,17.76,16.21h-11.95c-.25-3.35-2.85-5.47-5.84-5.65v10.68c9.62,1.95,19.13,5.8,18.53,17.28Z"/></svg>