<?xml version="1.0" encoding="UTF-8"?>
<svg id="Layer_1" xmlns="http://www.w3.org/2000/svg" viewBox="0 0 99.74 99.74" fill="url(#loamGradient)">
  <defs>
    <linearGradient id="loamGradient" x1="0%" y1="0%" x2="100%" y2="100%">
      <stop offset="0%" stop-color="#6ab967" />
      <stop offset="100%" stop-color="#287b40" />
    </linearGradient>
  </defs>
  <circle cx="32.89" cy="62.78" r="5.73" transform="translate(-.52 .28) rotate(-.48)"/>
  <path d="M58.4,46.4l-14.26-2.98-.02,2.55,14.08,2.95c.46.1.19-2.13.21-2.52Z"/>
  <path d="M49.87,0c-11.96,0-22.93,4.21-31.53,11.23,1.65.51,2.94,1.9,3.39,3.58l7.58,28.07,12.49,2.61c.06.01.23-.01.28-.04s.09-.16.09-.21l-.02-2.24-4.4-.95c-1.6-.35-2.21-1.94-2.18-3.48l.08-3.25.08-1.62c.09-1.9,2.08-2.91,3.82-2.37l25.5,7.91c1.16.36,2.14,1.19,2.23,2.46l.18,2.5c.07,1.02-.2,1.94-.88,2.59-.66.63-1.62.99-2.55.8l-3.67-.75.02,2.55,10.2,2.14c1.29.27,2.5.63,3.71,1.43-5.76,1.01-9.68,5.62-9.73,11.36.04.31.05.57.01.93h-19.1c.9-4.77-.89-9.52-4.57-12.47-3.82-3.06-8.95-3.68-13.46-1.65L17.93,15.86c-.16-.61-.62-.93-1.22-.93h-2.4C5.46,23.92,0,36.26,0,49.87c0,27.54,22.33,49.87,49.87,49.87s49.87-22.33,49.87-49.87S77.41,0,49.87,0ZM32.89,73.68c-6.02,0-10.9-4.88-10.9-10.9s4.88-10.9,10.9-10.9,10.9,4.88,10.9,10.9-4.88,10.9-10.9,10.9ZM75.94,73.63c-5.2,0-9.42-4.22-9.42-9.41s4.22-9.41,9.42-9.41,9.42,4.22,9.42,9.41-4.22,9.41-9.42,9.41Z"/>
  <circle cx="75.94" cy="64.22" r="4.31" transform="translate(-.68 .81) rotate(-.61)"/>
</svg>
