<?xml version="1.0" encoding="UTF-8"?><svg id="Layer_1" xmlns="http://www.w3.org/2000/svg" viewBox="0 0 1365.45 725.45"><path d="M296.41,573.63l-93.91-.11c-19.69-.01-35.32-16.73-35.32-36.18v-226.99c0-15.51-10.32-27.31-25.31-26.75-11.22.42-24.11,9.88-24.11,24.2v230.04c0,43.9,34.52,83.66,80.03,83.8l158.62.81c-22.98-12.9-41.89-28.99-60.01-48.82Z"/><path d="M620.97,455.21c0-95.41-77.34-172.75-172.75-172.75s-172.75,77.34-172.75,172.75,77.34,172.75,172.75,172.75,172.75-77.34,172.75-172.75ZM448.21,579.97c-68.9,0-124.76-55.86-124.76-124.76s55.86-124.76,124.76-124.76,124.76,55.86,124.76,124.76-55.86,124.76-124.76,124.76Z"/><path d="M996.29,579.88l-143.88-273.86s-.02-.04-.03-.06v-.02c-7.21-13.49-17.24-20.63-27.46-20.98h-1.74c-10.22.35-20.24,7.48-27.46,20.98l-112.15,209.66c-20.05,37.48-45.18,58.32-77.8,57.92l-4.24.11c-18.12,19.82-37.03,35.91-60.01,48.82l68.96-.81c67.37.89,85.26-19.39,117.9-72.73l87-170.17c1.55-2.89,5.07-4.4,8.67-4.61,0,0,.02,0,.03,0v.07c3.6.21,7.12,1.72,8.67,4.61l96.84,191.16-138.53-.13-9.92.03c-16.81-.01-29.6,11.17-29,27.41.45,12.16,10.69,26.13,26.2,26.14l183.13.18v-.04s7.91,0,7.91,0c6.99,1.09,14.38-.46,20.57-4.94,12.41-8.98,15.22-26.29,6.32-38.73l.02-.02Z"/><path d="M1265.07,587.43l-115.32-220.98-.14.07-33.99-65.15c-7.77-14.9-23.61-21.06-37.73-13-10.57,6.03-18.2,21.58-11.03,35.33l115.32,220.98.14-.07,33.99,65.15c7.77,14.9,23.61,21.06,37.73,13,10.57-6.03,18.2-21.58,11.03-35.33Z"/><path d="M1017.49,366.44l-.14.07-33.99-65.15c-7.77-14.9-23.61-21.06-37.73-13-10.57,6.03-18.2,21.58-11.03,35.33l115.32,220.98.14-.07,33.99,65.15c7.77,14.9,23.61,21.06,37.73,13,10.57-6.03,18.2-21.58,11.03-35.33l-115.32-220.98Z"/><path d="M1289.13,725.45H76.32c-42.08,0-76.32-34.24-76.32-76.32v-389c0-42.08,34.24-76.32,76.32-76.32h1212.81c42.08,0,76.32,34.24,76.32,76.32v389c0,42.08-34.24,76.32-76.32,76.32ZM76.32,196.36c-35.16,0-63.77,28.61-63.77,63.77v389c0,35.16,28.61,63.77,63.77,63.77h1212.81c35.16,0,63.77-28.61,63.77-63.77v-389c0-35.16-28.61-63.77-63.77-63.77H76.32Z"/><path d="M126.04,1.47h23.82c16.18,0,24.12,8.97,24.12,25.44v10.15c0,16.47-7.94,25.44-24.12,25.44h-7.65v41.91h-16.18V1.47ZM149.86,47.79c5.15,0,7.94-2.35,7.94-9.71v-12.21c0-7.35-2.79-9.71-7.94-9.71h-7.65v31.62h7.65Z"/><path d="M240.44,80V25.88c0-16.47,8.68-25.88,24.56-25.88s24.56,9.41,24.56,25.88v54.12c0,16.47-8.68,25.88-24.56,25.88s-24.56-9.41-24.56-25.88ZM273.38,81.03V24.85c0-7.35-3.23-10.15-8.38-10.15s-8.38,2.79-8.38,10.15v56.17c0,7.35,3.23,10.15,8.38,10.15s8.38-2.79,8.38-10.15Z"/><path d="M355.44,1.47h15.59l7.21,79.11h.29l7.65-79.11h17.65l7.65,79.11h.29l7.21-79.11h13.97l-10.44,102.94h-20.15l-7.35-69.41h-.29l-7.35,69.41h-21.47L355.44,1.47Z"/><path d="M500,1.47h44.12v14.71h-27.94v27.2h22.21v14.71h-22.21v31.62h27.94v14.71h-44.12V1.47Z"/><path d="M612.2,1.47h23.97c16.76,0,23.97,7.79,23.97,23.68v6.32c0,10.59-3.38,17.35-10.59,20.29v.29c8.09,2.5,10.73,10.15,10.73,21.76v18.09c0,5,.15,8.68,1.76,12.5h-16.47c-.88-2.65-1.47-4.26-1.47-12.65v-18.82c0-9.56-2.79-12.65-10.15-12.65h-5.59v44.12h-16.18V1.47ZM634.26,45.59c6.03,0,9.71-2.65,9.71-10.88v-7.94c0-7.35-2.5-10.59-8.23-10.59h-7.35v29.41h5.88Z"/><path d="M730.29,1.47h44.12v14.71h-27.94v27.2h22.21v14.71h-22.21v31.62h27.94v14.71h-44.12V1.47Z"/><path d="M842.5,1.47h24.7c16.18,0,24.12,8.97,24.12,25.44v52.06c0,16.47-7.94,25.44-24.12,25.44h-24.7V1.47ZM866.91,89.7c5.15,0,8.23-2.65,8.23-10V26.18c0-7.35-3.09-10-8.23-10h-8.24v73.53h8.24Z"/><path d="M1043.38,1.47h24.41c16.76,0,23.97,7.79,23.97,23.68v4.12c0,10.59-3.23,17.2-10.44,20.15v.29c8.68,2.94,12.06,10.59,12.06,21.47v8.82c0,15.88-8.38,24.41-24.56,24.41h-25.44V1.47ZM1065.87,43.38c6.03,0,9.71-2.65,9.71-10.88v-5.73c0-7.35-2.5-10.59-8.23-10.59h-7.79v27.2h6.32ZM1068.82,89.7c5.44,0,8.38-2.5,8.38-10.15v-8.97c0-9.56-3.09-12.5-10.44-12.5h-7.21v31.62h9.26Z"/><path d="M1174.11,60.59l-19.56-59.11h17.2l11.03,37.79h.29l11.03-37.79h15.73l-19.56,59.11v43.82h-16.18v-43.82Z"/></svg>